<mxGraphModel dx="0" dy="0" grid="1" gridSize="10" guides="1" tooltips="1" connect="1" arrows="1" fold="1" page="0" pageScale="1" background="none" math="0" shadow="0">
  <root>
    <mxCell id="0" />
    <mxCell id="1" parent="0" />
    <mxCell id="node2" parent="1" vertex="1" value="&lt;p style=&quot;margin:0px;margin-top:4px;text-align:center;&quot;&gt;&lt;b&gt;Block&lt;/b&gt;&lt;/p&gt;&lt;hr size=&quot;1&quot;/&gt;&lt;p style=&quot;margin:0 0 0 4px;line-height:1.6;&quot;&gt;+ Block(JSONObject): &lt;/p&gt;&lt;hr size=&quot;1&quot;/&gt;&lt;p style=&quot;margin:0 0 0 4px;line-height:1.6;&quot;&gt;- number: long&lt;br/&gt;- transactions: Transaction[]&lt;br/&gt;- submitter: String&lt;br/&gt;- reward: long&lt;br/&gt;- size: int&lt;br/&gt;- success: boolean&lt;br/&gt;- timestamp: long&lt;br/&gt;- hash: String&lt;br/&gt;- transactionCount: int&lt;/p&gt;&lt;hr size=&quot;1&quot;/&gt;&lt;p style=&quot;margin:0 0 0 4px;line-height:1.6;&quot;&gt;+ getTransactionCount(): int&lt;br/&gt;+ getSize(): int&lt;br/&gt;+ getSubmitter(): String&lt;br/&gt;+ getNumber(): long&lt;br/&gt;+ getTransactions(): Transaction[]&lt;br/&gt;+ getHash(): String&lt;br/&gt;+ getTimestamp(): long&lt;br/&gt;+ getReward(): long&lt;br/&gt;+ isSuccess(): boolean&lt;/p&gt;" style="verticalAlign=top;align=left;overflow=fill;fontSize=14;fontFamily=Helvetica;html=1;rounded=0;shadow=0;comic=0;labelBackgroundColor=none;strokeWidth=1;">
      <mxGeometry x="1408" y="3327" width="246" height="497" as="geometry" />
    </mxCell>
    <mxCell id="node6" parent="1" vertex="1" value="&lt;p style=&quot;margin:0px;margin-top:4px;text-align:center;&quot;&gt;&lt;b&gt;ClaimSpotTxn&lt;/b&gt;&lt;/p&gt;&lt;hr size=&quot;1&quot;/&gt;&lt;p style=&quot;margin:0 0 0 4px;line-height:1.6;&quot;&gt;+ ClaimSpotTxn(JSONObject, long, long, int): &lt;br/&gt;# ClaimSpotTxn(ClaimSpotTxnBuilder&amp;lt;?, ?&amp;gt;): &lt;/p&gt;&lt;hr size=&quot;1&quot;/&gt;&lt;p style=&quot;margin:0 0 0 4px;line-height:1.6;&quot;&gt;- validator: String&lt;br/&gt;+ type: String&lt;/p&gt;&lt;hr size=&quot;1&quot;/&gt;&lt;p style=&quot;margin:0 0 0 4px;line-height:1.6;&quot;&gt;+ getValidator(): String&lt;br/&gt;+ builder(): ClaimSpotTxnBuilder&amp;lt;?, ?&amp;gt;&lt;br/&gt;+ toJSON(): JSONObject&lt;/p&gt;" style="verticalAlign=top;align=left;overflow=fill;fontSize=14;fontFamily=Helvetica;html=1;rounded=0;shadow=0;comic=0;labelBackgroundColor=none;strokeWidth=1;">
      <mxGeometry x="2153" y="4031" width="317" height="209" as="geometry" />
    </mxCell>
    <mxCell id="node0" parent="1" vertex="1" value="&lt;p style=&quot;margin:0px;margin-top:4px;text-align:center;&quot;&gt;&lt;b&gt;ClaimVmIdTxn&lt;/b&gt;&lt;/p&gt;&lt;hr size=&quot;1&quot;/&gt;&lt;p style=&quot;margin:0 0 0 4px;line-height:1.6;&quot;&gt;# ClaimVmIdTxn(ClaimVmIdTxnBuilder&amp;lt;?, ?&amp;gt;): &lt;br/&gt;+ ClaimVmIdTxn(JSONObject, long, long, int): &lt;/p&gt;&lt;hr size=&quot;1&quot;/&gt;&lt;p style=&quot;margin:0 0 0 4px;line-height:1.6;&quot;&gt;+ type: String&lt;br/&gt;- vmId: long&lt;/p&gt;&lt;hr size=&quot;1&quot;/&gt;&lt;p style=&quot;margin:0 0 0 4px;line-height:1.6;&quot;&gt;+ getVmId(): long&lt;br/&gt;+ builder(): ClaimVmIdTxnBuilder&amp;lt;?, ?&amp;gt;&lt;br/&gt;+ toJSON(): JSONObject&lt;/p&gt;" style="verticalAlign=top;align=left;overflow=fill;fontSize=14;fontFamily=Helvetica;html=1;rounded=0;shadow=0;comic=0;labelBackgroundColor=none;strokeWidth=1;">
      <mxGeometry x="-108" y="4311" width="319" height="209" as="geometry" />
    </mxCell>
    <mxCell id="node17" parent="1" vertex="1" value="&lt;p style=&quot;margin:0px;margin-top:4px;text-align:center;&quot;&gt;&lt;b&gt;ConduitApprovalTxn&lt;/b&gt;&lt;/p&gt;&lt;hr size=&quot;1&quot;/&gt;&lt;p style=&quot;margin:0 0 0 4px;line-height:1.6;&quot;&gt;+ ConduitApprovalTxn(JSONObject, long, long, int): &lt;/p&gt;&lt;hr size=&quot;1&quot;/&gt;&lt;p style=&quot;margin:0 0 0 4px;line-height:1.6;&quot;&gt;+ type: String&lt;br/&gt;- transactions: List&amp;lt;String&amp;gt;&lt;br/&gt;- vmId: long&lt;/p&gt;" style="verticalAlign=top;align=left;overflow=fill;fontSize=14;fontFamily=Helvetica;html=1;rounded=0;shadow=0;comic=0;labelBackgroundColor=none;strokeWidth=1;">
      <mxGeometry x="252" y="4347" width="359" height="147" as="geometry" />
    </mxCell>
    <mxCell id="node1" parent="1" vertex="1" value="&lt;p style=&quot;margin:0px;margin-top:4px;text-align:center;&quot;&gt;&lt;b&gt;DelegateTxn&lt;/b&gt;&lt;/p&gt;&lt;hr size=&quot;1&quot;/&gt;&lt;p style=&quot;margin:0 0 0 4px;line-height:1.6;&quot;&gt;# DelegateTxn(DelegateTxnBuilder&amp;lt;?, ?&amp;gt;): &lt;br/&gt;+ DelegateTxn(JSONObject, long, long, int): &lt;/p&gt;&lt;hr size=&quot;1&quot;/&gt;&lt;p style=&quot;margin:0 0 0 4px;line-height:1.6;&quot;&gt;+ type: String&lt;br/&gt;- validator: String&lt;/p&gt;&lt;hr size=&quot;1&quot;/&gt;&lt;p style=&quot;margin:0 0 0 4px;line-height:1.6;&quot;&gt;+ getValidator(): String&lt;br/&gt;+ toJSON(): JSONObject&lt;br/&gt;+ builder(): DelegateTxnBuilder&amp;lt;?, ?&amp;gt;&lt;/p&gt;" style="verticalAlign=top;align=left;overflow=fill;fontSize=14;fontFamily=Helvetica;html=1;rounded=0;shadow=0;comic=0;labelBackgroundColor=none;strokeWidth=1;">
      <mxGeometry x="2516" y="4031" width="311" height="209" as="geometry" />
    </mxCell>
    <mxCell id="node21" parent="1" vertex="1" value="&lt;p style=&quot;margin:0px;margin-top:4px;text-align:center;&quot;&gt;&lt;b&gt;Delegator&lt;/b&gt;&lt;/p&gt;&lt;hr size=&quot;1&quot;/&gt;&lt;p style=&quot;margin:0 0 0 4px;line-height:1.6;&quot;&gt;# Delegator(DelegatorBuilder&amp;lt;?, ?&amp;gt;): &lt;/p&gt;&lt;hr size=&quot;1&quot;/&gt;&lt;p style=&quot;margin:0 0 0 4px;line-height:1.6;&quot;&gt;- validatorAddress: String&lt;br/&gt;- shares: long&lt;br/&gt;- delegatedPWR: long&lt;br/&gt;- address: String&lt;/p&gt;&lt;hr size=&quot;1&quot;/&gt;&lt;p style=&quot;margin:0 0 0 4px;line-height:1.6;&quot;&gt;+ getAddress(): String&lt;br/&gt;+ builder(): DelegatorBuilder&amp;lt;?, ?&amp;gt;&lt;br/&gt;+ getValidatorAddress(): String&lt;br/&gt;+ getDelegatedPWR(): long&lt;br/&gt;+ getShares(): long&lt;/p&gt;" style="verticalAlign=top;align=left;overflow=fill;fontSize=14;fontFamily=Helvetica;html=1;rounded=0;shadow=0;comic=0;labelBackgroundColor=none;strokeWidth=1;">
      <mxGeometry x="98" y="2855" width="267" height="281" as="geometry" />
    </mxCell>
    <mxCell id="node5" parent="1" vertex="1" value="&lt;p style=&quot;margin:0px;margin-top:4px;text-align:center;&quot;&gt;&lt;b&gt;ECDSASignature&lt;/b&gt;&lt;/p&gt;&lt;hr size=&quot;1&quot;/&gt;&lt;p style=&quot;margin:0 0 0 4px;line-height:1.6;&quot;&gt;+ ECDSASignature(BigInteger, BigInteger): &lt;/p&gt;&lt;hr size=&quot;1&quot;/&gt;&lt;p style=&quot;margin:0 0 0 4px;line-height:1.6;&quot;&gt;+ s: BigInteger&lt;br/&gt;+ r: BigInteger&lt;/p&gt;&lt;hr size=&quot;1&quot;/&gt;&lt;p style=&quot;margin:0 0 0 4px;line-height:1.6;&quot;&gt;+ isCanonical(): boolean&lt;br/&gt;+ toCanonicalised(): ECDSASignature&lt;/p&gt;" style="verticalAlign=top;align=left;overflow=fill;fontSize=14;fontFamily=Helvetica;html=1;rounded=0;shadow=0;comic=0;labelBackgroundColor=none;strokeWidth=1;">
      <mxGeometry x="901" y="3495" width="301" height="161" as="geometry" />
    </mxCell>
    <mxCell id="node9" parent="1" vertex="1" value="&lt;p style=&quot;margin:0px;margin-top:4px;text-align:center;&quot;&gt;&lt;b&gt;GuardianApprovalTxn&lt;/b&gt;&lt;/p&gt;&lt;hr size=&quot;1&quot;/&gt;&lt;p style=&quot;margin:0 0 0 4px;line-height:1.6;&quot;&gt;+ GuardianApprovalTxn(JSONObject, long, long, int): &lt;br/&gt;# GuardianApprovalTxn(GuardianApprovalTxnBuilder&amp;lt;?, ?&amp;gt;): &lt;/p&gt;&lt;hr size=&quot;1&quot;/&gt;&lt;p style=&quot;margin:0 0 0 4px;line-height:1.6;&quot;&gt;+ type: String&lt;br/&gt;- transactions: List&amp;lt;String&amp;gt;&lt;/p&gt;&lt;hr size=&quot;1&quot;/&gt;&lt;p style=&quot;margin:0 0 0 4px;line-height:1.6;&quot;&gt;+ getTransactions(): List&amp;lt;String&amp;gt;&lt;br/&gt;+ toJSON(): JSONObject&lt;br/&gt;+ builder(): GuardianApprovalTxnBuilder&amp;lt;?, ?&amp;gt;&lt;/p&gt;" style="verticalAlign=top;align=left;overflow=fill;fontSize=14;fontFamily=Helvetica;html=1;rounded=0;shadow=0;comic=0;labelBackgroundColor=none;strokeWidth=1;">
      <mxGeometry x="1685" y="4031" width="413" height="209" as="geometry" />
    </mxCell>
    <mxCell id="node10" parent="1" vertex="1" value="&lt;p style=&quot;margin:0px;margin-top:4px;text-align:center;&quot;&gt;&lt;b&gt;Hash&lt;/b&gt;&lt;/p&gt;&lt;hr size=&quot;1&quot;/&gt;&lt;p style=&quot;margin:0 0 0 4px;line-height:1.6;&quot;&gt;- Hash(): &lt;/p&gt;&lt;hr size=&quot;1&quot;/&gt;&lt;p style=&quot;margin:0 0 0 4px;line-height:1.6;&quot;&gt;+ sha3(byte[], int, int): byte[]&lt;br/&gt;+ sha256(byte[]): byte[]&lt;br/&gt;+ blake2b256(byte[]): byte[]&lt;br/&gt;+ hash(byte[], String): byte[]&lt;br/&gt;+ sha256hash160(byte[]): byte[]&lt;br/&gt;+ hmacSha512(byte[], byte[]): byte[]&lt;br/&gt;+ sha3(byte[]): byte[]&lt;/p&gt;" style="verticalAlign=top;align=left;overflow=fill;fontSize=14;fontFamily=Helvetica;html=1;rounded=0;shadow=0;comic=0;labelBackgroundColor=none;strokeWidth=1;">
      <mxGeometry x="580" y="3459" width="262" height="232" as="geometry" />
    </mxCell>
    <mxCell id="node22" parent="1" vertex="1" value="&lt;p style=&quot;margin:0px;margin-top:4px;text-align:center;&quot;&gt;&lt;b&gt;JoinTxn&lt;/b&gt;&lt;/p&gt;&lt;hr size=&quot;1&quot;/&gt;&lt;p style=&quot;margin:0 0 0 4px;line-height:1.6;&quot;&gt;# JoinTxn(JoinTxnBuilder&amp;lt;?, ?&amp;gt;): &lt;br/&gt;+ JoinTxn(JSONObject, long, long, int): &lt;/p&gt;&lt;hr size=&quot;1&quot;/&gt;&lt;p style=&quot;margin:0 0 0 4px;line-height:1.6;&quot;&gt;+ type: String&lt;br/&gt;- validator: String&lt;/p&gt;&lt;hr size=&quot;1&quot;/&gt;&lt;p style=&quot;margin:0 0 0 4px;line-height:1.6;&quot;&gt;+ getValidator(): String&lt;br/&gt;+ toJSON(): JSONObject&lt;br/&gt;+ builder(): JoinTxnBuilder&amp;lt;?, ?&amp;gt;&lt;/p&gt;" style="verticalAlign=top;align=left;overflow=fill;fontSize=14;fontFamily=Helvetica;html=1;rounded=0;shadow=0;comic=0;labelBackgroundColor=none;strokeWidth=1;">
      <mxGeometry x="91" y="4031" width="281" height="209" as="geometry" />
    </mxCell>
    <mxCell id="node11" parent="1" vertex="1" value="&lt;p style=&quot;margin:0px;margin-top:4px;text-align:center;&quot;&gt;&lt;b&gt;Main&lt;/b&gt;&lt;/p&gt;&lt;hr size=&quot;1&quot;/&gt;&lt;p style=&quot;margin:0 0 0 4px;line-height:1.6;&quot;&gt;+ Main(): &lt;/p&gt;&lt;hr size=&quot;1&quot;/&gt;&lt;p style=&quot;margin:0 0 0 4px;line-height:1.6;&quot;&gt;+ main(String[]): void&lt;/p&gt;" style="verticalAlign=top;align=left;overflow=fill;fontSize=14;fontFamily=Helvetica;html=1;rounded=0;shadow=0;comic=0;labelBackgroundColor=none;strokeWidth=1;">
      <mxGeometry x="469" y="2951" width="164" height="95" as="geometry" />
    </mxCell>
    <mxCell id="node20" parent="1" vertex="1" value="&lt;p style=&quot;margin:0px;margin-top:4px;text-align:center;&quot;&gt;&lt;b&gt;PWRJ&lt;/b&gt;&lt;/p&gt;&lt;hr size=&quot;1&quot;/&gt;&lt;p style=&quot;margin:0 0 0 4px;line-height:1.6;&quot;&gt;+ PWRJ(): &lt;/p&gt;&lt;hr size=&quot;1&quot;/&gt;&lt;p style=&quot;margin:0 0 0 4px;line-height:1.6;&quot;&gt;- chainId: byte&lt;br/&gt;- feePerByte: long&lt;br/&gt;- rpcNodeUrl: String&lt;/p&gt;&lt;hr size=&quot;1&quot;/&gt;&lt;p style=&quot;margin:0 0 0 4px;line-height:1.6;&quot;&gt;+ getShareValue(String): BigDecimal&lt;br/&gt;+ getVMDataTxns(long, long, long): VmDataTxn[]&lt;br/&gt;+ getTotalValidatorsCount(): int&lt;br/&gt;+ getBlocksCount(): long&lt;br/&gt;+ broadcastTxn(byte[]): Response&lt;br/&gt;+ getBalanceOfAddress(String): long&lt;br/&gt;+ getActiveValidators(): List&amp;lt;Validator&amp;gt;&lt;br/&gt;+ getNonceOfAddress(String): int&lt;br/&gt;+ getLatestBlockNumber(): long&lt;br/&gt;+ updateFeePerByte(): void&lt;br/&gt;+ httpGet(String): JSONObject&lt;br/&gt;+ getValidator(String): Validator&lt;br/&gt;+ getGuardianOfAddress(String): String&lt;br/&gt;+ getVMDataTxnsFilterByBytePrefix(long, long, long, byte[]): VmDataTxn[]&lt;br/&gt;+ getStandbyValidatorsCount(): int&lt;br/&gt;+ setRpcNodeUrl(String): void&lt;br/&gt;+ getBlockchainVersion(): short&lt;br/&gt;+ getDelegatedPWR(String, String): long&lt;br/&gt;+ getOwnerOfVm(long): String&lt;br/&gt;+ getFeePerByte(): long&lt;br/&gt;+ getRpcNodeUrl(): String&lt;br/&gt;+ getActiveValidatorsCount(): int&lt;br/&gt;+ getStandbyValidators(): List&amp;lt;Validator&amp;gt;&lt;br/&gt;+ getDelegatees(String): List&amp;lt;Validator&amp;gt;&lt;br/&gt;+ getTotalDelegatorsCount(): int&lt;br/&gt;+ getOrDefault(JSONObject, String, Object): Object&lt;br/&gt;+ getActiveVotingPower(): long&lt;br/&gt;+ getChainId(): byte&lt;br/&gt;+ getAllValidators(): List&amp;lt;Validator&amp;gt;&lt;br/&gt;+ main(String[]): void&lt;br/&gt;+ getBlockByNumber(long): Block&lt;/p&gt;" style="verticalAlign=top;align=left;overflow=fill;fontSize=14;fontFamily=Helvetica;html=1;rounded=0;shadow=0;comic=0;labelBackgroundColor=none;strokeWidth=1;">
      <mxGeometry x="-97" y="1835" width="497" height="881" as="geometry" />
    </mxCell>
    <mxCell id="node13" parent="1" vertex="1" value="&lt;p style=&quot;margin:0px;margin-top:4px;text-align:center;&quot;&gt;&lt;b&gt;PWRWallet&lt;/b&gt;&lt;/p&gt;&lt;hr size=&quot;1&quot;/&gt;&lt;p style=&quot;margin:0 0 0 4px;line-height:1.6;&quot;&gt;+ PWRWallet(byte[]): &lt;br/&gt;+ PWRWallet(BigInteger): &lt;br/&gt;+ PWRWallet(): &lt;br/&gt;+ PWRWallet(String): &lt;/p&gt;&lt;hr size=&quot;1&quot;/&gt;&lt;p style=&quot;margin:0 0 0 4px;line-height:1.6;&quot;&gt;- client: HttpClient&lt;br/&gt;- privateKey: BigInteger&lt;/p&gt;&lt;hr size=&quot;1&quot;/&gt;&lt;p style=&quot;margin:0 0 0 4px;line-height:1.6;&quot;&gt;+ getPayableVmDataTxn(long, long, byte[], int): byte[]&lt;br/&gt;+ setGuardian(String, long, int): Response&lt;br/&gt;+ getAddress(): String&lt;br/&gt;+ delegate(String, long, int): Response&lt;br/&gt;+ withdraw(String, long, int): Response&lt;br/&gt;+ withdrawPWR(String, long): Response&lt;br/&gt;+ getPrivateKey(): BigInteger&lt;br/&gt;+ getSignedWithdrawPWRTxn(String, long, int): byte[]&lt;br/&gt;+ sendConduitTransaction(long, byte[], int): Response&lt;br/&gt;+ getSignedVmDataTxn(long, byte[], int): byte[]&lt;br/&gt;+ getSendGuardianWrappedTransactionTxn(byte[], int): byte[]&lt;br/&gt;+ getSignedTransferPWRTxn(String, long, int): byte[]&lt;br/&gt;+ getSignedPayableVmDataTxn(long, long, byte[], int): byte[]&lt;br/&gt;+ publicKeyToAddress(BigInteger): String&lt;br/&gt;+ join(String): Response&lt;br/&gt;+ getSignedWithdrawTxn(String, long, int): byte[]&lt;br/&gt;+ sendConduitTransaction(long, byte[]): Response&lt;br/&gt;+ removeGuardian(): Response&lt;br/&gt;+ claimVmId(long): Response&lt;br/&gt;+ getSignedTxn(byte[]): byte[]&lt;br/&gt;+ getSignedJoinTxn(String, int): byte[]&lt;br/&gt;+ claimActiveNodeSpot(): Response&lt;br/&gt;+ setGuardian(String, long): Response&lt;br/&gt;+ join(String, int): Response&lt;br/&gt;+ claimActiveNodeSpot(int): Response&lt;br/&gt;+ getWithdrawTxn(String, long, int): byte[]&lt;br/&gt;+ getClaimVmIdTxn(long, int): byte[]&lt;br/&gt;+ getSignedRemoveGuardianTxn(): byte[]&lt;br/&gt;+ getWithdrawPWRTxn(String, long, int): byte[]&lt;br/&gt;+ getBalance(): long&lt;br/&gt;+ getSignedSendConduitTransactionTxn(long, byte[], int): byte[]&lt;br/&gt;+ sendGuardianWrappedTransaction(byte[]): Response&lt;br/&gt;+ getSignedClaimActiveNodeSpotTxn(int): byte[]&lt;br/&gt;+ getSignedSendGuardianWrappedTransactionTxn(byte[], int): byte[]&lt;br/&gt;+ sendVmDataTxn(long, byte[]): Response&lt;br/&gt;+ withdrawPWR(String, long, int): Response&lt;br/&gt;+ getSignedRemoveGuardianTxn(int): byte[]&lt;br/&gt;+ getTransferPWRTxn(String, long, int): byte[]&lt;br/&gt;+ getSignedDelegateTxn(String, long, int): byte[]&lt;br/&gt;+ getSignedSetGuardianTxn(String, long, int): byte[]&lt;br/&gt;+ main(String[]): void&lt;br/&gt;+ sendVmDataTxn(long, byte[], int): Response&lt;br/&gt;+ getSendConduitTransactionTxn(long, byte[], int): byte[]&lt;br/&gt;+ withdraw(String, long): Response&lt;br/&gt;+ sendGuardianWrappedTransaction(byte[], int): Response&lt;br/&gt;+ getSendValidatorRemoveTxn(String, int): byte[]&lt;br/&gt;+ getSignedSendValidatorRemoveTxn(String, int): byte[]&lt;br/&gt;+ transferPWR(String, long, int): Response&lt;br/&gt;+ delegate(String, long): Response&lt;br/&gt;+ sendValidatorRemoveTxn(String, int): Response&lt;br/&gt;+ getRemoveGuardianTxn(int): byte[]&lt;br/&gt;+ getDelegateTxn(String, long, int): byte[]&lt;br/&gt;+ sendValidatorRemoveTxn(String): Response&lt;br/&gt;+ getVmDataTxn(long, byte[], int): byte[]&lt;br/&gt;+ getNonce(): int&lt;br/&gt;+ getTxnBase(byte, int): byte[]&lt;br/&gt;+ publicKeyFromPrivate(BigInteger): BigInteger&lt;br/&gt;+ guardianTest(PWRWallet, PWRWallet): void&lt;br/&gt;+ getJoinTxn(String, int): byte[]&lt;br/&gt;+ removeGuardian(int): Response&lt;br/&gt;+ transferPWR(String, long): Response&lt;br/&gt;+ sendVmDataTxn(long, long, byte[]): Response&lt;br/&gt;+ claimVmId(long, int): Response&lt;br/&gt;+ getSignedClaimVmIdTxn(long, int): byte[]&lt;br/&gt;+ sendPayableVmDataTxn(long, long, byte[], int): Response&lt;br/&gt;+ getSetGuardianTxn(String, long, int): byte[]&lt;br/&gt;+ publicPointFromPrivate(BigInteger): ECPoint&lt;br/&gt;+ getClaimActiveNodeSpotTxn(int): byte[]&lt;/p&gt;" style="verticalAlign=top;align=left;overflow=fill;fontSize=14;fontFamily=Helvetica;html=1;rounded=0;shadow=0;comic=0;labelBackgroundColor=none;strokeWidth=1;">
      <mxGeometry x="198" y="-13" width="466" height="1817" as="geometry" />
    </mxCell>
    <mxCell id="node15" parent="1" vertex="1" value="&lt;p style=&quot;margin:0px;margin-top:4px;text-align:center;&quot;&gt;&lt;b&gt;PayableVmDataTxn&lt;/b&gt;&lt;/p&gt;&lt;hr size=&quot;1&quot;/&gt;&lt;p style=&quot;margin:0 0 0 4px;line-height:1.6;&quot;&gt;+ PayableVmDataTxn(JSONObject, long, long, int): &lt;br/&gt;# PayableVmDataTxn(PayableVmDataTxnBuilder&amp;lt;?, ?&amp;gt;): &lt;/p&gt;&lt;hr size=&quot;1&quot;/&gt;&lt;p style=&quot;margin:0 0 0 4px;line-height:1.6;&quot;&gt;- vmId: long&lt;br/&gt;+ type: String&lt;br/&gt;- data: String&lt;/p&gt;&lt;hr size=&quot;1&quot;/&gt;&lt;p style=&quot;margin:0 0 0 4px;line-height:1.6;&quot;&gt;+ builder(): PayableVmDataTxnBuilder&amp;lt;?, ?&amp;gt;&lt;br/&gt;+ getData(): String&lt;br/&gt;+ getVmId(): long&lt;br/&gt;+ toJSON(): JSONObject&lt;/p&gt;" style="verticalAlign=top;align=left;overflow=fill;fontSize=14;fontFamily=Helvetica;html=1;rounded=0;shadow=0;comic=0;labelBackgroundColor=none;strokeWidth=1;">
      <mxGeometry x="1080" y="4007" width="383" height="257" as="geometry" />
    </mxCell>
    <mxCell id="node19" parent="1" vertex="1" value="&lt;p style=&quot;margin:0px;margin-top:4px;text-align:center;&quot;&gt;&lt;b&gt;RemoveGuardianTxn&lt;/b&gt;&lt;/p&gt;&lt;hr size=&quot;1&quot;/&gt;&lt;p style=&quot;margin:0 0 0 4px;line-height:1.6;&quot;&gt;+ RemoveGuardianTxn(JSONObject, long, long, int): &lt;br/&gt;# RemoveGuardianTxn(RemoveGuardianTxnBuilder&amp;lt;?, ?&amp;gt;): &lt;/p&gt;&lt;hr size=&quot;1&quot;/&gt;&lt;p style=&quot;margin:0 0 0 4px;line-height:1.6;&quot;&gt;+ type: String&lt;/p&gt;&lt;hr size=&quot;1&quot;/&gt;&lt;p style=&quot;margin:0 0 0 4px;line-height:1.6;&quot;&gt;+ builder(): RemoveGuardianTxnBuilder&amp;lt;?, ?&amp;gt;&lt;/p&gt;" style="verticalAlign=top;align=left;overflow=fill;fontSize=14;fontFamily=Helvetica;html=1;rounded=0;shadow=0;comic=0;labelBackgroundColor=none;strokeWidth=1;">
      <mxGeometry x="450" y="4067" width="403" height="148" as="geometry" />
    </mxCell>
    <mxCell id="node12" parent="1" vertex="1" value="&lt;p style=&quot;margin:0px;margin-top:4px;text-align:center;&quot;&gt;&lt;b&gt;Response&lt;/b&gt;&lt;/p&gt;&lt;hr size=&quot;1&quot;/&gt;&lt;p style=&quot;margin:0 0 0 4px;line-height:1.6;&quot;&gt;+ Response(boolean, String, String): &lt;/p&gt;&lt;hr size=&quot;1&quot;/&gt;&lt;p style=&quot;margin:0 0 0 4px;line-height:1.6;&quot;&gt;- txnHash: String&lt;br/&gt;- success: boolean&lt;br/&gt;- error: String&lt;/p&gt;&lt;hr size=&quot;1&quot;/&gt;&lt;p style=&quot;margin:0 0 0 4px;line-height:1.6;&quot;&gt;+ isSuccess(): boolean&lt;br/&gt;+ getTxnHash(): String&lt;br/&gt;+ getError(): String&lt;/p&gt;" style="verticalAlign=top;align=left;overflow=fill;fontSize=14;fontFamily=Helvetica;html=1;rounded=0;shadow=0;comic=0;labelBackgroundColor=none;strokeWidth=1;">
      <mxGeometry x="259" y="3471" width="264" height="209" as="geometry" />
    </mxCell>
    <mxCell id="node18" parent="1" vertex="1" value="&lt;p style=&quot;margin:0px;margin-top:4px;text-align:center;&quot;&gt;&lt;b&gt;SetGuardianTxn&lt;/b&gt;&lt;/p&gt;&lt;hr size=&quot;1&quot;/&gt;&lt;p style=&quot;margin:0 0 0 4px;line-height:1.6;&quot;&gt;+ SetGuardianTxn(JSONObject, long, long, int): &lt;br/&gt;# SetGuardianTxn(SetGuardianTxnBuilder&amp;lt;?, ?&amp;gt;): &lt;/p&gt;&lt;hr size=&quot;1&quot;/&gt;&lt;p style=&quot;margin:0 0 0 4px;line-height:1.6;&quot;&gt;- expiryDate: long&lt;br/&gt;+ type: String&lt;br/&gt;- guardian: String&lt;/p&gt;&lt;hr size=&quot;1&quot;/&gt;&lt;p style=&quot;margin:0 0 0 4px;line-height:1.6;&quot;&gt;+ getGuardian(): String&lt;br/&gt;+ getExpiryDate(): long&lt;br/&gt;+ builder(): SetGuardianTxnBuilder&amp;lt;?, ?&amp;gt;&lt;br/&gt;+ toJSON(): JSONObject&lt;/p&gt;" style="verticalAlign=top;align=left;overflow=fill;fontSize=14;fontFamily=Helvetica;html=1;rounded=0;shadow=0;comic=0;labelBackgroundColor=none;strokeWidth=1;">
      <mxGeometry x="699" y="4287" width="345" height="257" as="geometry" />
    </mxCell>
    <mxCell id="node4" parent="1" vertex="1" value="&lt;p style=&quot;margin:0px;margin-top:4px;text-align:center;&quot;&gt;&lt;b&gt;Signature&lt;/b&gt;&lt;/p&gt;&lt;hr size=&quot;1&quot;/&gt;&lt;p style=&quot;margin:0 0 0 4px;line-height:1.6;&quot;&gt;+ Signature(): &lt;/p&gt;&lt;hr size=&quot;1&quot;/&gt;&lt;p style=&quot;margin:0 0 0 4px;line-height:1.6;&quot;&gt;+ CURVE_PARAMS: X9ECParameters&lt;br/&gt;+ CURVE: ECDomainParameters&lt;br/&gt;+ HALF_CURVE_ORDER: BigInteger&lt;/p&gt;&lt;hr size=&quot;1&quot;/&gt;&lt;p style=&quot;margin:0 0 0 4px;line-height:1.6;&quot;&gt;+ toBytesPadded(BigInteger, int): byte[]&lt;br/&gt;+ publicPointFromPrivate(BigInteger): ECPoint&lt;br/&gt;+ signMessage(byte[], BigInteger): byte[]&lt;br/&gt;+ sign(BigInteger, byte[]): ECDSASignature&lt;br/&gt;+ verifyPrecondition(boolean, String): void&lt;br/&gt;- decompressKey(BigInteger, boolean): ECPoint&lt;br/&gt;+ publicKeyFromPrivate(BigInteger): BigInteger&lt;br/&gt;+ recoverFromSignature(int, ECDSASignature, byte[]): BigInteger&lt;/p&gt;" style="verticalAlign=top;align=left;overflow=fill;fontSize=14;fontFamily=Helvetica;html=1;rounded=0;shadow=0;comic=0;labelBackgroundColor=none;strokeWidth=1;">
      <mxGeometry x="1072" y="2831" width="439" height="329" as="geometry" />
    </mxCell>
    <mxCell id="node16" parent="1" vertex="1" value="&lt;p style=&quot;margin:0px;margin-top:4px;text-align:center;&quot;&gt;&lt;b&gt;Transaction&lt;/b&gt;&lt;/p&gt;&lt;hr size=&quot;1&quot;/&gt;&lt;p style=&quot;margin:0 0 0 4px;line-height:1.6;&quot;&gt;+ Transaction(JSONObject, long, long, int): &lt;br/&gt;# Transaction(TransactionBuilder&amp;lt;?, ?&amp;gt;): &lt;/p&gt;&lt;hr size=&quot;1&quot;/&gt;&lt;p style=&quot;margin:0 0 0 4px;line-height:1.6;&quot;&gt;- size: int&lt;br/&gt;- hash: String&lt;br/&gt;- blockNumber: long&lt;br/&gt;- type: String&lt;br/&gt;- nonce: int&lt;br/&gt;- fee: long&lt;br/&gt;- timestamp: long&lt;br/&gt;- positionInTheBlock: int&lt;br/&gt;- receiver: String&lt;br/&gt;- value: long&lt;br/&gt;- sender: String&lt;/p&gt;&lt;hr size=&quot;1&quot;/&gt;&lt;p style=&quot;margin:0 0 0 4px;line-height:1.6;&quot;&gt;+ getValue(): long&lt;br/&gt;+ getSize(): int&lt;br/&gt;+ toJSON(): JSONObject&lt;br/&gt;+ getSender(): String&lt;br/&gt;+ getFee(): long&lt;br/&gt;+ getTimestamp(): long&lt;br/&gt;+ getPositionInTheBlock(): int&lt;br/&gt;+ getType(): String&lt;br/&gt;+ builder(): TransactionBuilder&amp;lt;?, ?&amp;gt;&lt;br/&gt;+ getHash(): String&lt;br/&gt;+ getBlockNumber(): long&lt;br/&gt;+ getReceiver(): String&lt;br/&gt;+ getNonce(): int&lt;/p&gt;" style="verticalAlign=top;align=left;overflow=fill;fontSize=14;fontFamily=Helvetica;html=1;rounded=0;shadow=0;comic=0;labelBackgroundColor=none;strokeWidth=1;">
      <mxGeometry x="-101" y="3243" width="305" height="665" as="geometry" />
    </mxCell>
    <mxCell id="node8" parent="1" vertex="1" value="&lt;p style=&quot;margin:0px;margin-top:4px;text-align:center;&quot;&gt;&lt;b&gt;TransferTxn&lt;/b&gt;&lt;/p&gt;&lt;hr size=&quot;1&quot;/&gt;&lt;p style=&quot;margin:0 0 0 4px;line-height:1.6;&quot;&gt;+ TransferTxn(JSONObject, long, long, int): &lt;br/&gt;# TransferTxn(TransferTxnBuilder&amp;lt;?, ?&amp;gt;): &lt;/p&gt;&lt;hr size=&quot;1&quot;/&gt;&lt;p style=&quot;margin:0 0 0 4px;line-height:1.6;&quot;&gt;+ type: String&lt;/p&gt;&lt;hr size=&quot;1&quot;/&gt;&lt;p style=&quot;margin:0 0 0 4px;line-height:1.6;&quot;&gt;+ builder(): TransferTxnBuilder&amp;lt;?, ?&amp;gt;&lt;/p&gt;" style="verticalAlign=top;align=left;overflow=fill;fontSize=14;fontFamily=Helvetica;html=1;rounded=0;shadow=0;comic=0;labelBackgroundColor=none;strokeWidth=1;">
      <mxGeometry x="1977" y="4347" width="308" height="148" as="geometry" />
    </mxCell>
    <mxCell id="node7" parent="1" vertex="1" value="&lt;p style=&quot;margin:0px;margin-top:4px;text-align:center;&quot;&gt;&lt;b&gt;Validator&lt;/b&gt;&lt;/p&gt;&lt;hr size=&quot;1&quot;/&gt;&lt;p style=&quot;margin:0 0 0 4px;line-height:1.6;&quot;&gt;# Validator(ValidatorBuilder&amp;lt;?, ?&amp;gt;): &lt;/p&gt;&lt;hr size=&quot;1&quot;/&gt;&lt;p style=&quot;margin:0 0 0 4px;line-height:1.6;&quot;&gt;- address: String&lt;br/&gt;- isBadActor: boolean&lt;br/&gt;- shares: long&lt;br/&gt;- delegatorsCount: int&lt;br/&gt;- ip: String&lt;br/&gt;- votingPower: long&lt;br/&gt;- status: String&lt;/p&gt;&lt;hr size=&quot;1&quot;/&gt;&lt;p style=&quot;margin:0 0 0 4px;line-height:1.6;&quot;&gt;+ getStatus(): String&lt;br/&gt;+ builder(): ValidatorBuilder&amp;lt;?, ?&amp;gt;&lt;br/&gt;+ getVotingPower(): long&lt;br/&gt;+ getShares(): long&lt;br/&gt;+ getIp(): String&lt;br/&gt;+ isBadActor(): boolean&lt;br/&gt;+ getAddress(): String&lt;br/&gt;+ getDelegatorsCount(): int&lt;br/&gt;+ getDelegators(): List&amp;lt;Delegator&amp;gt;&lt;/p&gt;" style="verticalAlign=top;align=left;overflow=fill;fontSize=14;fontFamily=Helvetica;html=1;rounded=0;shadow=0;comic=0;labelBackgroundColor=none;strokeWidth=1;">
      <mxGeometry x="744" y="2771" width="255" height="449" as="geometry" />
    </mxCell>
    <mxCell id="node3" parent="1" vertex="1" value="&lt;p style=&quot;margin:0px;margin-top:4px;text-align:center;&quot;&gt;&lt;b&gt;VmDataTxn&lt;/b&gt;&lt;/p&gt;&lt;hr size=&quot;1&quot;/&gt;&lt;p style=&quot;margin:0 0 0 4px;line-height:1.6;&quot;&gt;# VmDataTxn(VmDataTxnBuilder&amp;lt;?, ?&amp;gt;): &lt;br/&gt;+ VmDataTxn(JSONObject, long, long, int): &lt;/p&gt;&lt;hr size=&quot;1&quot;/&gt;&lt;p style=&quot;margin:0 0 0 4px;line-height:1.6;&quot;&gt;- vmId: long&lt;br/&gt;+ type: String&lt;br/&gt;- data: String&lt;/p&gt;&lt;hr size=&quot;1&quot;/&gt;&lt;p style=&quot;margin:0 0 0 4px;line-height:1.6;&quot;&gt;+ getVmId(): long&lt;br/&gt;+ toJSON(): JSONObject&lt;br/&gt;+ builder(): VmDataTxnBuilder&amp;lt;?, ?&amp;gt;&lt;br/&gt;+ getData(): String&lt;/p&gt;" style="verticalAlign=top;align=left;overflow=fill;fontSize=14;fontFamily=Helvetica;html=1;rounded=0;shadow=0;comic=0;labelBackgroundColor=none;strokeWidth=1;">
      <mxGeometry x="2340" y="4287" width="303" height="257" as="geometry" />
    </mxCell>
    <mxCell id="node14" parent="1" vertex="1" value="&lt;p style=&quot;margin:0px;margin-top:4px;text-align:center;&quot;&gt;&lt;b&gt;WithdrawTxn&lt;/b&gt;&lt;/p&gt;&lt;hr size=&quot;1&quot;/&gt;&lt;p style=&quot;margin:0 0 0 4px;line-height:1.6;&quot;&gt;+ WithdrawTxn(JSONObject, long, long, int): &lt;br/&gt;# WithdrawTxn(WithdrawTxnBuilder&amp;lt;?, ?&amp;gt;): &lt;/p&gt;&lt;hr size=&quot;1&quot;/&gt;&lt;p style=&quot;margin:0 0 0 4px;line-height:1.6;&quot;&gt;+ type: String&lt;br/&gt;- validator: String&lt;br/&gt;- shares: long&lt;/p&gt;&lt;hr size=&quot;1&quot;/&gt;&lt;p style=&quot;margin:0 0 0 4px;line-height:1.6;&quot;&gt;+ toJSON(): JSONObject&lt;br/&gt;+ getValidator(): String&lt;br/&gt;+ builder(): WithdrawTxnBuilder&amp;lt;?, ?&amp;gt;&lt;br/&gt;+ getShares(): long&lt;/p&gt;" style="verticalAlign=top;align=left;overflow=fill;fontSize=14;fontFamily=Helvetica;html=1;rounded=0;shadow=0;comic=0;labelBackgroundColor=none;strokeWidth=1;">
      <mxGeometry x="1494" y="4287" width="314" height="257" as="geometry" />
    </mxCell>
    <mxCell id="edge4" edge="1" value="" parent="1" source="node6" target="node16" style="html=1;rounded=1;edgeStyle=orthogonalEdgeStyle;dashed=0;startArrow=none;endArrow=block;endSize=12;strokeColor=#000082;exitX=0.500;exitY=0.000;exitDx=0;exitDy=0;entryX=0.500;entryY=1.000;entryDx=0;entryDy=0;">
      <mxGeometry width="50" height="50" relative="1" as="geometry">
        <Array as="points">
          <mxPoint x="2311" y="3975" />
          <mxPoint x="51" y="3975" />
        </Array>
      </mxGeometry>
    </mxCell>
    <mxCell id="edge0" edge="1" value="" parent="1" source="node0" target="node16" style="html=1;rounded=1;edgeStyle=orthogonalEdgeStyle;dashed=0;startArrow=none;endArrow=block;endSize=12;strokeColor=#000082;exitX=0.500;exitY=0.000;exitDx=0;exitDy=0;entryX=0.500;entryY=1.000;entryDx=0;entryDy=0;">
      <mxGeometry width="50" height="50" relative="1" as="geometry">
        <Array as="points" />
      </mxGeometry>
    </mxCell>
    <mxCell id="edge9" edge="1" value="" parent="1" source="node17" target="node16" style="html=1;rounded=1;edgeStyle=orthogonalEdgeStyle;dashed=0;startArrow=none;endArrow=block;endSize=12;strokeColor=#000082;exitX=0.500;exitY=0.000;exitDx=0;exitDy=0;entryX=0.500;entryY=1.000;entryDx=0;entryDy=0;">
      <mxGeometry width="50" height="50" relative="1" as="geometry">
        <Array as="points">
          <mxPoint x="431" y="3975" />
          <mxPoint x="51" y="3975" />
        </Array>
      </mxGeometry>
    </mxCell>
    <mxCell id="edge5" edge="1" value="" parent="1" source="node1" target="node16" style="html=1;rounded=1;edgeStyle=orthogonalEdgeStyle;dashed=0;startArrow=none;endArrow=block;endSize=12;strokeColor=#000082;exitX=0.500;exitY=0.000;exitDx=0;exitDy=0;entryX=0.500;entryY=1.000;entryDx=0;entryDy=0;">
      <mxGeometry width="50" height="50" relative="1" as="geometry">
        <Array as="points">
          <mxPoint x="2671" y="3975" />
          <mxPoint x="51" y="3975" />
        </Array>
      </mxGeometry>
    </mxCell>
    <mxCell id="edge10" edge="1" value="" parent="1" source="node9" target="node16" style="html=1;rounded=1;edgeStyle=orthogonalEdgeStyle;dashed=0;startArrow=none;endArrow=block;endSize=12;strokeColor=#000082;exitX=0.500;exitY=0.000;exitDx=0;exitDy=0;entryX=0.500;entryY=1.000;entryDx=0;entryDy=0;">
      <mxGeometry width="50" height="50" relative="1" as="geometry">
        <Array as="points">
          <mxPoint x="1891" y="3975" />
          <mxPoint x="51" y="3975" />
        </Array>
      </mxGeometry>
    </mxCell>
    <mxCell id="edge11" edge="1" value="" parent="1" source="node22" target="node16" style="html=1;rounded=1;edgeStyle=orthogonalEdgeStyle;dashed=0;startArrow=none;endArrow=block;endSize=12;strokeColor=#000082;exitX=0.500;exitY=0.000;exitDx=0;exitDy=0;entryX=0.500;entryY=1.000;entryDx=0;entryDy=0;">
      <mxGeometry width="50" height="50" relative="1" as="geometry">
        <Array as="points">
          <mxPoint x="231" y="3975" />
          <mxPoint x="51" y="3975" />
        </Array>
      </mxGeometry>
    </mxCell>
    <mxCell id="edge8" edge="1" value="" parent="1" source="node15" target="node16" style="html=1;rounded=1;edgeStyle=orthogonalEdgeStyle;dashed=0;startArrow=none;endArrow=block;endSize=12;strokeColor=#000082;exitX=0.500;exitY=0.000;exitDx=0;exitDy=0;entryX=0.500;entryY=1.000;entryDx=0;entryDy=0;">
      <mxGeometry width="50" height="50" relative="1" as="geometry">
        <Array as="points">
          <mxPoint x="1271" y="3975" />
          <mxPoint x="51" y="3975" />
        </Array>
      </mxGeometry>
    </mxCell>
    <mxCell id="edge6" edge="1" value="" parent="1" source="node19" target="node16" style="html=1;rounded=1;edgeStyle=orthogonalEdgeStyle;dashed=0;startArrow=none;endArrow=block;endSize=12;strokeColor=#000082;exitX=0.500;exitY=0.000;exitDx=0;exitDy=0;entryX=0.500;entryY=1.000;entryDx=0;entryDy=0;">
      <mxGeometry width="50" height="50" relative="1" as="geometry">
        <Array as="points">
          <mxPoint x="651" y="3975" />
          <mxPoint x="51" y="3975" />
        </Array>
      </mxGeometry>
    </mxCell>
    <mxCell id="edge2" edge="1" value="" parent="1" source="node18" target="node16" style="html=1;rounded=1;edgeStyle=orthogonalEdgeStyle;dashed=0;startArrow=none;endArrow=block;endSize=12;strokeColor=#000082;exitX=0.500;exitY=0.000;exitDx=0;exitDy=0;entryX=0.500;entryY=1.000;entryDx=0;entryDy=0;">
      <mxGeometry width="50" height="50" relative="1" as="geometry">
        <Array as="points">
          <mxPoint x="871" y="3975" />
          <mxPoint x="51" y="3975" />
        </Array>
      </mxGeometry>
    </mxCell>
    <mxCell id="edge7" edge="1" value="" parent="1" source="node8" target="node16" style="html=1;rounded=1;edgeStyle=orthogonalEdgeStyle;dashed=0;startArrow=none;endArrow=block;endSize=12;strokeColor=#000082;exitX=0.500;exitY=0.000;exitDx=0;exitDy=0;entryX=0.500;entryY=1.000;entryDx=0;entryDy=0;">
      <mxGeometry width="50" height="50" relative="1" as="geometry">
        <Array as="points">
          <mxPoint x="2131" y="3975" />
          <mxPoint x="51" y="3975" />
        </Array>
      </mxGeometry>
    </mxCell>
    <mxCell id="edge3" edge="1" value="" parent="1" source="node3" target="node16" style="html=1;rounded=1;edgeStyle=orthogonalEdgeStyle;dashed=0;startArrow=none;endArrow=block;endSize=12;strokeColor=#000082;exitX=0.500;exitY=0.000;exitDx=0;exitDy=0;entryX=0.500;entryY=1.000;entryDx=0;entryDy=0;">
      <mxGeometry width="50" height="50" relative="1" as="geometry">
        <Array as="points">
          <mxPoint x="2491" y="3975" />
          <mxPoint x="51" y="3975" />
        </Array>
      </mxGeometry>
    </mxCell>
    <mxCell id="edge1" edge="1" value="" parent="1" source="node14" target="node16" style="html=1;rounded=1;edgeStyle=orthogonalEdgeStyle;dashed=0;startArrow=none;endArrow=block;endSize=12;strokeColor=#000082;exitX=0.500;exitY=0.000;exitDx=0;exitDy=0;entryX=0.500;entryY=1.000;entryDx=0;entryDy=0;">
      <mxGeometry width="50" height="50" relative="1" as="geometry">
        <Array as="points">
          <mxPoint x="1651" y="3975" />
          <mxPoint x="51" y="3975" />
        </Array>
      </mxGeometry>
    </mxCell>
  </root>
</mxGraphModel>